<?xml version="1.0" standalone="no"?>
<!DOCTYPE svg PUBLIC "-//W3C//DTD SVG 1.1//EN" "http://www.w3.org/Graphics/SVG/1.1/DTD/svg11.dtd">
<svg xmlns="http://www.w3.org/2000/svg" width="525" height="525" viewBox="0 0 525 525" fill="none">
<circle cx="262.5" cy="262.5" r="262.5" fill="black" fill-opacity="0.25"/>
<g clip-path="url(#clip0)">
<path d="M204.504 88.6823H29.1258C27.9517 88.6823 27 89.6332 27 90.8062V224.258C27 225.431 27.9517 226.382 29.1258 226.382H204.504C205.678 226.382 206.629 225.431 206.629 224.258V90.8062C206.629 89.6332 205.678 88.6823 204.504 88.6823Z" fill="#F2F6FB"/>
<mask id="mask0" mask-type="alpha" maskUnits="userSpaceOnUse" x="143" y="120" width="31" height="94">
<path d="M148.084 120.187H169.138C170.717 120.187 171.29 120.351 171.867 120.66C172.445 120.968 172.898 121.421 173.206 121.998C173.515 122.575 173.68 123.147 173.68 124.725V209.331C173.68 210.909 173.515 211.481 173.206 212.058C172.898 212.635 172.445 213.088 171.867 213.396C171.29 213.705 170.717 213.869 169.138 213.869H148.084C146.504 213.869 145.932 213.705 145.354 213.396C144.777 213.088 144.324 212.635 144.015 212.058C143.706 211.481 143.542 210.909 143.542 209.331V124.725C143.542 123.147 143.706 122.575 144.015 121.998C144.324 121.421 144.777 120.968 145.354 120.66C145.932 120.351 146.504 120.187 148.084 120.187Z" fill="white"/>
</mask>
<g mask="url(#mask0)">
<path d="M148.084 120.187H169.138C170.717 120.187 171.29 120.351 171.867 120.66C172.445 120.968 172.898 121.421 173.206 121.998C173.515 122.575 173.68 123.147 173.68 124.725V209.331C173.68 210.909 173.515 211.481 173.206 212.058C172.898 212.635 172.445 213.088 171.867 213.396C171.29 213.705 170.717 213.869 169.138 213.869H148.084C146.504 213.869 145.932 213.705 145.354 213.396C144.777 213.088 144.324 212.635 144.015 212.058C143.706 211.481 143.542 210.909 143.542 209.331V124.725C143.542 123.147 143.706 122.575 144.015 121.998C144.324 121.421 144.777 120.968 145.354 120.66C145.932 120.351 146.504 120.187 148.084 120.187Z" fill="#E1E5F0"/>
<path d="M144.557 173.242H172.665C173.018 173.242 173.146 173.278 173.275 173.347C173.404 173.416 173.505 173.517 173.574 173.646C173.643 173.775 173.68 173.903 173.68 174.256V213.869H143.542V174.256C143.542 173.903 143.579 173.775 143.648 173.646C143.717 173.517 143.818 173.416 143.947 173.347C144.076 173.278 144.204 173.242 144.557 173.242Z" fill="#D8DEED"/>
</g>
<mask id="mask1" mask-type="alpha" maskUnits="userSpaceOnUse" x="101" y="120" width="32" height="94">
<path d="M106.465 120.187H127.519C129.098 120.187 129.671 120.351 130.248 120.66C130.826 120.968 131.279 121.421 131.587 121.998C131.896 122.575 132.061 123.147 132.061 124.725V209.331C132.061 210.909 131.896 211.481 131.587 212.058C131.279 212.635 130.826 213.088 130.248 213.396C129.671 213.705 129.098 213.869 127.519 213.869H106.465C104.885 213.869 104.313 213.705 103.735 213.396C103.158 213.088 102.705 212.635 102.396 212.058C102.087 211.481 101.923 210.909 101.923 209.331V124.725C101.923 123.147 102.087 122.575 102.396 121.998C102.705 121.421 103.158 120.968 103.735 120.66C104.313 120.351 104.885 120.187 106.465 120.187Z" fill="white"/>
</mask>
<g mask="url(#mask1)">
<path d="M106.465 120.187H127.519C129.098 120.187 129.671 120.351 130.248 120.66C130.826 120.968 131.279 121.421 131.587 121.998C131.896 122.575 132.061 123.147 132.061 124.725V209.331C132.061 210.909 131.896 211.481 131.587 212.058C131.279 212.635 130.826 213.088 130.248 213.396C129.671 213.705 129.098 213.869 127.519 213.869H106.465C104.885 213.869 104.313 213.705 103.735 213.396C103.158 213.088 102.705 212.635 102.396 212.058C102.087 211.481 101.923 210.909 101.923 209.331V124.725C101.923 123.147 102.087 122.575 102.396 121.998C102.705 121.421 103.158 120.968 103.735 120.66C104.313 120.351 104.885 120.187 106.465 120.187Z" fill="#E1E5F0"/>
<path d="M102.938 140.74H131.046C131.399 140.74 131.527 140.776 131.656 140.845C131.785 140.914 131.886 141.015 131.955 141.144C132.024 141.273 132.061 141.401 132.061 141.754V213.869H101.923V141.754C101.923 141.401 101.96 141.273 102.029 141.144C102.098 141.015 102.199 140.914 102.328 140.845C102.457 140.776 102.585 140.74 102.938 140.74Z" fill="#D8DEED"/>
</g>
<mask id="mask2" mask-type="alpha" maskUnits="userSpaceOnUse" x="60" y="120" width="31" height="94">
<path d="M64.846 120.187H85.9C87.4793 120.187 88.052 120.351 88.6294 120.66C89.2067 120.968 89.6599 121.421 89.9687 121.998C90.2774 122.575 90.4419 123.147 90.4419 124.725V209.331C90.4419 210.909 90.2774 211.481 89.9687 212.058C89.6599 212.635 89.2067 213.088 88.6294 213.396C88.052 213.705 87.4793 213.869 85.9 213.869H64.846C63.2667 213.869 62.694 213.705 62.1166 213.396C61.5392 213.088 61.0861 212.635 60.7773 212.058C60.4685 211.481 60.3041 210.909 60.3041 209.331V124.725C60.3041 123.147 60.4685 122.575 60.7773 121.998C61.0861 121.421 61.5392 120.968 62.1166 120.66C62.694 120.351 63.2667 120.187 64.846 120.187Z" fill="white"/>
</mask>
<g mask="url(#mask2)">
<path d="M64.846 120.187H85.9C87.4793 120.187 88.052 120.351 88.6294 120.66C89.2067 120.968 89.6599 121.421 89.9687 121.998C90.2774 122.575 90.4419 123.147 90.4419 124.725V209.331C90.4419 210.909 90.2774 211.481 89.9687 212.058C89.6599 212.635 89.2067 213.088 88.6294 213.396C88.052 213.705 87.4793 213.869 85.9 213.869H64.846C63.2667 213.869 62.694 213.705 62.1166 213.396C61.5392 213.088 61.0861 212.635 60.7773 212.058C60.4685 211.481 60.3041 210.909 60.3041 209.331V124.725C60.3041 123.147 60.4685 122.575 60.7773 121.998C61.0861 121.421 61.5392 120.968 62.1166 120.66C62.694 120.351 63.2667 120.187 64.846 120.187Z" fill="#E1E5F0"/>
<path d="M61.319 156.991H89.4269C89.7799 156.991 89.9078 157.027 90.0369 157.096C90.1659 157.165 90.2671 157.266 90.3361 157.395C90.4051 157.524 90.4419 157.652 90.4419 158.005V213.869H60.3041V158.005C60.3041 157.652 60.3408 157.524 60.4098 157.395C60.4788 157.266 60.5801 157.165 60.7091 157.096C60.8381 157.027 60.9661 156.991 61.319 156.991Z" fill="#D8DEED"/>
</g>
<path d="M27 95.7636C27 91.8527 30.1749 88.6823 34.0832 88.6823H199.546C203.458 88.6823 206.629 91.853 206.629 95.7636V104.258H27V95.7636Z" fill="#E1E5F0"/>
</g>
<g clip-path="url(#clip1)">
<path d="M70.1236 418.652H32.4341C31.2906 418.652 30.29 417.699 30.29 416.555V416.317C30.29 415.174 31.2906 414.221 32.5294 414.221H67.4547C88.61 414.221 109.765 414.221 130.873 414.221H163.273C164.416 414.221 165.417 415.174 165.417 416.317V416.555C165.417 417.699 164.464 418.652 163.273 418.652H117.293L129.968 441.904C138.973 458.485 147.978 475.018 157.031 491.599L171.945 518.949C172.469 519.902 172.04 521.141 171.039 521.712L170.849 521.808C169.848 522.332 168.562 522.046 168.085 521.141L112.291 418.652H75.1259L19.3311 521.141C18.8547 522.046 17.5682 522.379 16.5676 521.808L16.377 521.712C15.3764 521.141 14.9476 519.902 15.4717 518.949L30.3853 491.599C39.3906 475.018 48.3959 458.485 57.4488 441.904L70.1236 418.652ZM30.4329 399.98V372.276C30.4329 351.148 30.4329 330.067 30.4329 308.987V283.811C30.4329 279.863 33.6328 276.664 37.58 276.664H115.34C119.287 276.664 122.487 279.863 122.487 283.811V400.062C122.487 404.009 119.287 407.209 115.34 407.209C115.337 407.209 115.335 407.209 115.332 407.209L37.5724 407.127C33.6282 407.123 30.4329 403.924 30.4329 399.98Z" fill="#D8DEED"/>
</g>
<g clip-path="url(#clip2)">
<path d="M410.205 16H232.459C228.255 16 224.847 19.411 224.847 23.6186V156.564C224.847 160.771 228.255 164.182 232.459 164.182H410.205C414.41 164.182 417.818 160.771 417.818 156.564V23.6186C417.818 19.411 414.41 16 410.205 16Z" fill="#F2F6FB"/>
<path d="M323.51 58.0263L354.103 67.6429L386.414 85.9468L388.56 82.1276L355.848 63.5963L322.967 53.2605L289.809 72.8269L256.73 84.2664L258.152 88.4125L291.644 76.83L323.51 58.0263Z" fill="#D8DEED"/>
<path d="M256.152 92.1293C253.157 92.1293 250.729 89.7007 250.729 86.7049C250.729 83.7091 253.157 81.2805 256.152 81.2805C259.147 81.2805 261.575 83.7091 261.575 86.7049C261.575 89.7007 259.147 92.1293 256.152 92.1293ZM288.692 79.7307C285.697 79.7307 283.269 77.3021 283.269 74.3062C283.269 71.3104 285.697 68.8818 288.692 68.8818C291.687 68.8818 294.115 71.3104 294.115 74.3062C294.115 77.3021 291.687 79.7307 288.692 79.7307ZM321.232 61.1327C318.237 61.1327 315.808 58.7041 315.808 55.7082C315.808 52.7124 318.237 50.2838 321.232 50.2838C324.227 50.2838 326.655 52.7124 326.655 55.7082C326.655 58.7041 324.227 61.1327 321.232 61.1327ZM353.772 70.4317C350.776 70.4317 348.348 68.0031 348.348 65.0072C348.348 62.0114 350.776 59.5828 353.772 59.5828C356.767 59.5828 359.195 62.0114 359.195 65.0072C359.195 68.0031 356.767 70.4317 353.772 70.4317ZM386.312 90.5795C383.316 90.5795 380.888 88.1509 380.888 85.1551C380.888 82.1593 383.316 79.7307 386.312 79.7307C389.307 79.7307 391.735 82.1593 391.735 85.1551C391.735 88.1509 389.307 90.5795 386.312 90.5795Z" fill="#DC7418"/>
<path d="M336.482 113.767V140.244C336.482 141.052 335.827 141.707 335.018 141.707H333.3C332.492 141.707 331.836 141.052 331.836 140.244V113.767C331.836 112.96 332.491 112.304 333.3 112.304H335.018C335.826 112.304 336.482 112.959 336.482 113.767ZM327.19 118.412V140.242C327.19 141.051 326.535 141.707 325.726 141.707H324.007C323.2 141.707 322.544 141.051 322.544 140.242V118.412C322.544 117.603 323.199 116.947 324.007 116.947H325.726C326.534 116.947 327.19 117.603 327.19 118.412ZM317.898 104.483V140.244C317.898 141.052 317.242 141.707 316.434 141.707H314.715C313.907 141.707 313.252 141.052 313.252 140.244V104.483C313.252 103.674 313.907 103.019 314.715 103.019H316.434C317.242 103.019 317.898 103.674 317.898 104.483ZM308.605 113.767V140.244C308.605 141.052 307.95 141.707 307.142 141.707H305.423C304.615 141.707 303.959 141.052 303.959 140.244V113.767C303.959 112.96 304.615 112.304 305.423 112.304H307.142C307.95 112.304 308.605 112.959 308.605 113.767ZM299.313 99.8429V140.241C299.313 141.053 298.658 141.707 297.85 141.707H296.131C295.323 141.707 294.667 141.051 294.667 140.241V99.8429C294.667 99.0311 295.322 98.3764 296.131 98.3764H297.85C298.657 98.3764 299.313 99.033 299.313 99.8429ZM290.021 104.483V140.244C290.021 141.052 289.366 141.707 288.557 141.707H286.839C286.031 141.707 285.375 141.052 285.375 140.244V104.483C285.375 103.674 286.03 103.019 286.839 103.019H288.557C289.365 103.019 290.021 103.674 290.021 104.483ZM280.729 96.7475V140.241C280.729 141.051 280.074 141.707 279.265 141.707H277.546C276.739 141.707 276.083 141.051 276.083 140.241V96.7475C276.083 95.9376 276.738 95.2813 277.546 95.2813H279.265C280.073 95.2813 280.729 95.9377 280.729 96.7475ZM271.437 93.6482V140.245C271.437 141.054 270.781 141.707 269.973 141.707H268.254C267.446 141.707 266.791 141.053 266.791 140.245V93.6482C266.791 92.8397 267.446 92.1863 268.254 92.1863H269.973C270.781 92.1863 271.437 92.8408 271.437 93.6482ZM262.144 104.483V140.244C262.144 141.052 261.489 141.707 260.681 141.707H258.962C258.154 141.707 257.498 141.052 257.498 140.244V104.483C257.498 103.674 258.154 103.019 258.962 103.019H260.681C261.489 103.019 262.144 103.674 262.144 104.483ZM392.235 113.767V140.244C392.235 141.052 391.58 141.707 390.772 141.707H389.053C388.245 141.707 387.589 141.052 387.589 140.244V113.767C387.589 112.96 388.244 112.304 389.053 112.304H390.772C391.579 112.304 392.235 112.959 392.235 113.767ZM382.943 99.8429V140.241C382.943 141.053 382.288 141.707 381.479 141.707H379.761C378.953 141.707 378.297 141.051 378.297 140.241V99.8429C378.297 99.0311 378.952 98.3764 379.761 98.3764H381.479C382.287 98.3764 382.943 99.033 382.943 99.8429ZM373.651 104.483V140.244C373.651 141.052 372.996 141.707 372.187 141.707H370.468C369.661 141.707 369.005 141.052 369.005 140.244V104.483C369.005 103.674 369.66 103.019 370.468 103.019H372.187C372.995 103.019 373.651 103.674 373.651 104.483ZM364.359 96.7475V140.241C364.359 141.051 363.703 141.707 362.895 141.707H361.176C360.368 141.707 359.713 141.051 359.713 140.241V96.7475C359.713 95.9376 360.368 95.2813 361.176 95.2813H362.895C363.703 95.2813 364.359 95.9377 364.359 96.7475ZM355.066 93.6482V140.245C355.066 141.054 354.411 141.707 353.603 141.707H351.884C351.076 141.707 350.42 141.053 350.42 140.245V93.6482C350.42 92.8397 351.076 92.1863 351.884 92.1863H353.603C354.411 92.1863 355.066 92.8408 355.066 93.6482ZM345.774 104.483V140.244C345.774 141.052 345.119 141.707 344.311 141.707H342.592C341.784 141.707 341.128 141.052 341.128 140.244V104.483C341.128 103.674 341.783 103.019 342.592 103.019H344.311C345.118 103.019 345.774 103.674 345.774 104.483Z" fill="#D8DEED"/>
<path d="M224.847 23.6203C224.847 19.4117 228.258 16 232.456 16H410.208C414.411 16 417.818 19.412 417.818 23.6203V32.761H224.847V23.6203Z" fill="#E1E5F0"/>
<path d="M236.075 28.1898C238.072 28.1898 239.691 26.5696 239.691 24.5709C239.691 22.5723 238.072 20.9521 236.075 20.9521C234.078 20.9521 232.459 22.5723 232.459 24.5709C232.459 26.5696 234.078 28.1898 236.075 28.1898Z" fill="#FF5645"/>
<path d="M247.874 28.1898C249.871 28.1898 251.49 26.5696 251.49 24.5709C251.49 22.5723 249.871 20.9521 247.874 20.9521C245.877 20.9521 244.258 22.5723 244.258 24.5709C244.258 26.5696 245.877 28.1898 247.874 28.1898Z" fill="#DC7418"/>
<path d="M260.054 28.1898C262.051 28.1898 263.67 26.5696 263.67 24.5709C263.67 22.5723 262.051 20.9521 260.054 20.9521C258.057 20.9521 256.438 22.5723 256.438 24.5709C256.438 26.5696 258.057 28.1898 260.054 28.1898Z" fill="#00CC83"/>
</g>
<g clip-path="url(#clip3)">
<g clip-path="url(#clip4)">
<path d="M377.056 517.989C378.163 517.989 379.061 518.887 379.061 519.995C379.061 521.102 378.163 522 377.056 522H304.42C303.313 522 302.415 521.102 302.415 519.995C302.415 518.887 303.313 517.989 304.42 517.989H377.056ZM522.105 522H476.429C475.359 522 474.423 521.229 474.423 520.303V519.686C474.423 518.761 475.315 517.989 476.429 517.989H522.105C523.174 517.989 524.11 518.761 524.11 519.686V520.303C524.11 521.229 523.219 522 522.105 522Z" fill="#FF5645"/>
<path d="M377.518 518.043C377.369 518.008 377.215 517.989 377.056 517.989H304.736C304.688 517.745 304.664 517.438 304.671 517.04C304.721 516.729 304.727 516.372 304.822 516.017C305.394 513.888 306.087 512.474 308.115 511.217C310.142 509.96 312.212 508.837 314.369 507.85C322.323 504.111 325.04 504.158 330.27 500.729C332.435 499.296 334.425 497.637 336.283 495.842C337.522 494.645 340.052 492.701 343.873 490.01L382.626 490.642L377.518 518.043ZM522.348 518.003C522.268 517.994 522.187 517.989 522.105 517.989H476.582L480.184 495.257L512.09 490.935L522.348 518.003Z" fill="#444444"/>
<path d="M429.279 345.842C418.87 378.021 410.964 402.496 400.026 436.305L393.324 463.61C392.835 466.323 390.039 468.146 387.154 467.657L353.243 461.92C350.358 461.431 348.404 458.807 348.937 456.095C350.224 449.646 351.334 443.954 352.266 439.151C353.864 431.058 354.619 427.144 355.506 422.164C356.039 419.139 356.483 416.605 356.749 414.915C367.047 359.548 376.546 317.034 381.694 293.909C383.869 283.992 388.042 265.27 402.379 246.281C403.311 245.08 404.065 244.147 404.509 243.568C405.172 242.89 405.874 242.298 406.597 241.781C406.581 241.622 406.564 241.463 406.548 241.303C410.157 238.718 413.196 235.646 427.634 234.799C427.99 234.799 428.391 234.755 428.748 234.755C442.74 234.265 455.708 241.617 462.035 253.337L472.864 273.345C474.423 276.197 475.537 279.227 476.161 282.347L513.274 458.649C513.759 460.954 512.366 463.238 510.095 463.863L475.181 473.472C472.329 474.23 469.343 472.67 468.541 470.041L465.823 461.307C457.535 437.912 449.424 413.447 441.626 388.047C437.252 373.757 433.143 359.682 429.279 345.842Z" fill="#DC7418"/>
<path d="M464.968 280.384C464.968 280.384 454.542 310.36 461.422 311.023C461.422 311.023 465.227 308.432 467.427 301.227L469.224 288.014L464.968 280.384Z" fill="#482D1F"/>
<path opacity="0.2" d="M408.684 240.37C408.578 240.447 408.472 240.524 408.365 240.6C409.79 254.541 411.803 267.282 413.273 281.223C413.297 281.306 413.32 281.389 413.344 281.472C413.349 281.635 413.359 281.783 413.374 281.917C413.788 285.712 419.126 307.131 429.386 346.174C417.402 383.218 411.92 399.159 399.936 436.203L393.233 463.508C392.745 466.221 389.949 468.044 387.064 467.555L353.152 461.819C350.267 461.329 348.314 458.706 348.847 455.993C350.134 449.545 351.244 443.852 352.176 439.049C353.774 430.956 354.528 427.042 355.416 422.062C355.949 419.037 356.393 416.503 356.659 414.813C366.957 359.447 376.455 316.932 381.604 293.807C383.779 283.89 387.951 265.168 402.288 246.179C403.22 244.978 403.975 244.045 404.419 243.466C405.732 242.122 407.195 241.118 408.684 240.37Z" fill="#8C2A00"/>
<path d="M415.639 170.182C417.218 169.726 418.871 169.38 420.591 169.158L423.112 168.848C426.238 168.446 429.158 168.602 431.85 169.202C432.169 169.159 432.499 169.118 432.838 169.081C437.428 168.592 443.755 168.77 449.682 171.927C450.484 172.372 452.289 173.857 453.925 175.309C458.803 179.641 457.748 178.819 463.719 189.001C465.19 191.49 467.035 194.268 468.416 197.291C468.426 197.211 468.439 197.371 468.416 197.291C468.635 197.895 468.755 198.547 468.755 199.227C468.755 202.37 466.21 205.166 463.06 205.166C460.378 205.166 457.877 203.421 457.267 200.932C457.391 201.399 457.436 201.611 457.436 202.117C457.436 204.581 456.121 206.825 453.925 207.617L455.383 221.419C455.398 221.91 455.408 222.357 455.468 222.842C455.694 225.054 455.697 228.369 454.088 230.985C451.846 234.665 448.506 240.003 432.074 242.2C414.404 244.548 409.562 240.215 406.397 237.11C404.208 235.004 403.374 232.24 403.048 229.95C402.989 229.465 402.89 229.029 402.787 228.549L398.387 208.498C397.88 211.123 395.565 213.106 392.786 213.106C389.636 213.106 387.082 210.558 387.082 207.415C387.082 206.032 387.576 204.765 388.398 203.779C388.762 201.554 389.125 199.535 389.489 197.722C392.029 185.539 394.925 181.582 394.925 181.582C396.396 179.537 397.822 178.203 398.49 177.581C403.392 172.957 409.452 171.134 413.998 170.422C414.571 170.323 415.119 170.244 415.639 170.182Z" fill="#FF5645"/>
<path d="M343.873 490.016L353.552 461.977L387.493 467.742L382.314 492.283L343.873 490.016ZM478.213 472.644L506.417 464.821L512.09 490.94L480.184 495.263L478.213 472.644ZM414.232 162.812C414.112 162.851 413.989 162.891 413.864 162.931C410.032 164.176 410.254 164.087 409.987 164.176C407.135 164.799 404.729 164.576 404.283 164.487C400.585 163.998 396.619 156.929 395.282 147.014C395.148 146.213 395.148 145.413 395.103 144.613L395.237 136.654C395.237 134.876 395.727 133.141 396.619 131.63C396.708 131.452 396.797 131.319 396.886 131.185C397.198 130.741 397.51 130.296 397.822 129.94C399.025 128.517 400.451 127.495 401.921 126.783C405.397 125.361 409.319 125.227 411.502 125.538C411.814 125.583 412.794 125.716 414.176 125.894C415.468 126.205 416.716 126.383 418.008 126.428C418.721 126.472 419.256 127.095 419.256 127.806C418.989 134.683 418.84 138.477 418.81 139.188C418.766 140.255 421.484 137.943 422.687 137.899C424.826 137.854 427.5 141.323 428.168 143.546C428.881 145.858 428.035 148.214 426.609 149.681C425.584 150.704 424.381 151.149 423.578 151.371C423.222 151.371 422.821 151.727 422.687 152.171C422.687 152.171 422.687 152.216 422.643 152.26L425.405 157.551C425.45 157.685 425.495 157.729 425.495 157.729C425.495 157.729 425.453 157.751 425.378 157.792L426.965 157.462L428.257 168.767C428.257 168.767 425.308 169.594 421.938 169.945C419.691 170.179 417.43 170.31 415.157 170.34L414.232 162.812ZM387.088 207.686C387.227 210.706 389.725 213.112 392.786 213.112C395.565 213.112 397.88 211.129 398.387 208.503L402.787 228.555C402.89 229.035 402.989 229.471 403.048 229.956C403.274 231.543 403.744 233.357 404.739 235.022C398.101 245.651 388.279 255.391 376.148 249.908C360.822 242.982 343.805 230.358 325.099 212.038C324.18 211.537 323.1 210.885 321.997 210.056C319.152 207.922 317.858 205.832 313.616 197.874C309.425 189.959 307.209 178.193 307.881 175.259C308.037 174.814 309.545 172.994 311.304 174.683C313.218 176.506 319.358 186.58 322.1 191.249C322.135 191.308 322.173 191.366 322.213 191.424C321.522 188.474 321.784 185.708 324.606 184.721C324.606 184.721 327.72 190.299 331.223 196.512C331.884 196.904 332.525 197.332 333.124 197.809C339.85 201.116 374.691 218.257 379.238 220.666L387.088 207.686ZM438.947 210.494C439.454 210.642 439.991 210.721 440.547 210.721C443.697 210.721 446.251 208.173 446.251 205.03C446.251 204.601 446.203 204.182 446.113 203.78L446.128 203.776C446.774 206.213 448.998 208.009 451.643 208.009C454.793 208.009 457.347 205.461 457.347 202.318C457.347 201.812 457.281 201.321 457.156 200.854L457.421 200.784C458.03 203.272 460.28 205.119 462.962 205.119C463.888 205.119 464.762 204.899 465.536 204.508C478.652 245.265 486.068 271.697 487.783 283.806C487.881 284.208 487.954 284.641 488.002 285.105C488.766 292.548 487.079 304.139 482.941 319.878C482.906 319.972 469.813 327.562 459.884 322.615L466.167 286.736L438.947 210.494Z" fill="#DB9E75"/>
<path opacity="0.176986" d="M415.157 170.335C404.519 173.594 397.33 181.846 395.788 190.664C395.362 193.045 395.532 195.533 396.09 197.884L398.365 208.251C398.046 211.092 395.63 213.301 392.697 213.301C389.547 213.301 386.993 210.753 386.993 207.61C386.993 206.209 387.5 204.907 388.341 203.894C388.782 200.988 388.904 200.39 389.4 197.917C391.94 185.734 394.836 181.777 394.836 181.777C396.307 179.732 397.793 178.29 398.461 177.667C403.363 173.043 409.082 171.221 413.627 170.51C414.138 170.421 414.653 170.367 415.157 170.335Z" fill="#444444"/>
<path opacity="0.2" d="M387.088 207.68C387.227 210.7 389.725 213.106 392.786 213.106C395.565 213.106 397.88 211.123 398.387 208.498L402.787 228.549C402.89 229.029 402.989 229.465 403.048 229.95C403.274 231.537 403.744 233.351 404.739 235.017C398.101 245.645 388.279 255.385 376.148 249.902C360.822 242.976 343.805 230.352 325.099 212.032C324.18 211.531 323.1 210.88 321.997 210.05C319.152 207.916 317.858 205.826 313.616 197.868C309.425 189.953 307.209 178.187 307.881 175.253C308.037 174.808 309.545 172.988 311.304 174.678C313.218 176.501 319.358 186.574 322.1 191.243C322.135 191.302 322.173 191.36 322.213 191.418C321.522 188.468 321.784 185.702 324.606 184.715C324.606 184.715 327.72 190.294 331.223 196.506C331.884 196.898 332.525 197.326 333.124 197.803C339.85 201.11 374.691 218.251 379.238 220.66L387.088 207.68Z" fill="#8C2A00"/>
<path d="M308.034 165.439C309.282 164.773 310.619 164.817 311.02 165.573L330.092 199.764C330.494 200.52 329.87 201.676 328.622 202.388C327.374 203.055 326.037 203.01 325.636 202.254L306.564 168.063C306.118 167.262 306.787 166.106 308.034 165.439Z" fill="#474961"/>
<path d="M422.104 151.077L422.331 151.098C422.91 150.965 424.737 150.698 426.163 149.231C427.589 147.808 428.436 145.452 427.678 143.14C427.01 140.917 424.871 139.094 422.732 139.138C421.529 139.182 420.548 139.76 420.415 139.849C418.855 140.872 418.142 142.295 418.142 142.295L417.699 143.293C417.544 143.048 417.394 142.818 417.251 142.606C414.131 139.138 411.012 135.714 407.848 132.246C406.066 132.691 403.125 133.091 399.782 132.291C398.713 132.024 397.777 131.491 396.975 131.046C397.287 130.601 397.599 130.157 397.911 129.801C399.114 128.378 400.54 127.356 402.011 126.644C405.486 125.221 409.408 125.088 411.591 125.399C411.903 125.444 412.884 125.577 414.265 125.755C414.666 125.799 415.067 125.844 415.557 125.888C416.716 125.977 417.607 126.066 418.142 126.111C424.915 126.555 427.544 125.799 430.931 127.667C431.555 128.022 432.981 128.867 434.184 130.423C436.055 132.865 436.622 135.628 436.705 137.923L436.724 137.893C436.724 137.893 440.066 149.453 435.61 155.278C434.28 157.017 433.394 158.407 432.806 159.502C433.823 160.191 434.994 161.027 436.234 161.992C439.442 164.57 436.858 169.684 432.892 168.616L428.07 167.308L427.482 162.07C422.208 159.009 422.21 152.704 422.271 151.387C422.215 151.284 422.16 151.181 422.104 151.077Z" fill="#482D1F"/>
<path d="M414.704 166.936L419.434 161.495L414.214 162.808L414.704 166.936Z" fill="#482D1F"/>
<path d="M398.178 146.296C398.267 147.052 398.446 148.386 398.089 148.964C397.51 149.898 395.95 147.764 396.218 146.252C396.351 145.629 396.663 145.363 397.02 145.363C397.599 145.318 398.089 145.718 398.178 146.296ZM407.759 145.452C407.848 146.208 408.026 147.541 407.67 148.119C407.091 149.053 405.531 146.919 405.798 145.407C405.932 144.785 406.244 144.518 406.6 144.518C407.18 144.473 407.67 144.874 407.759 145.452ZM400.364 146.39C400.386 146.145 400.602 145.964 400.847 145.986C401.093 146.008 401.273 146.225 401.251 146.47L400.852 150.876C400.852 150.932 400.913 151.008 400.931 151.01C401.232 151.033 401.418 151.033 402.179 151.018C402.538 151.012 402.786 151.008 403.08 151.008C403.326 151.008 403.526 151.208 403.526 151.454C403.526 151.7 403.326 151.9 403.08 151.9C402.793 151.9 402.55 151.903 402.196 151.909C401.402 151.925 401.204 151.925 400.896 151.9C400.372 151.9 399.961 151.387 399.962 150.836L400.364 146.39ZM403.748 154.433C403.303 154.611 401.877 155.144 401.342 154.611C401.119 154.389 400.718 153.633 400.718 153.633C400.718 153.633 401.921 153.633 403.347 153.41C404.149 153.277 404.729 153.099 404.907 153.321C404.952 153.366 404.907 153.499 404.907 153.588C404.818 154.033 404.06 154.344 403.748 154.433Z" fill="#482D1F"/>
<path d="M414.307 143.07L417.054 142.353C417.393 142.264 417.733 142.496 417.813 142.87C417.893 143.245 417.683 143.62 417.344 143.709L414.748 144.387C414.84 144.816 414.889 145.262 414.889 145.718C414.889 149.207 412.056 152.034 408.561 152.034C405.506 152.034 402.956 149.872 402.363 146.997L400.936 147.096C400.796 150.46 398.019 153.145 394.613 153.145C391.119 153.145 388.286 150.318 388.286 146.83C388.286 143.342 391.119 140.515 394.613 140.515C397.743 140.515 400.342 142.782 400.851 145.761L402.234 145.666C402.262 142.202 405.084 139.403 408.561 139.403C411.108 139.403 413.304 140.905 414.307 143.07ZM399.578 146.318C399.321 143.809 397.197 141.852 394.613 141.852C391.857 141.852 389.622 144.081 389.622 146.83C389.622 149.579 391.857 151.808 394.613 151.808C397.37 151.808 399.604 149.579 399.604 146.83C399.604 146.79 399.604 146.751 399.603 146.711C399.58 146.651 399.566 146.587 399.561 146.52C399.556 146.45 399.563 146.382 399.578 146.318ZM408.561 150.697C411.318 150.697 413.552 148.468 413.552 145.718C413.552 142.969 411.318 140.74 408.561 140.74C405.804 140.74 403.57 142.969 403.57 145.718C403.57 148.468 405.804 150.697 408.561 150.697Z" fill="#482D1F"/>
<path d="M468.839 307.859C468.884 307.492 469.218 307.232 469.584 307.277C469.951 307.323 470.211 307.657 470.166 308.023C469.881 310.319 469.603 312.097 468.941 316.048C468.281 319.981 468.006 321.745 467.724 324.016C467.679 324.383 467.345 324.643 466.979 324.598C466.613 324.552 466.352 324.219 466.398 323.852C466.682 321.556 466.96 319.779 467.622 315.827C468.282 311.894 468.558 310.13 468.839 307.859ZM477.719 305.276C477.787 304.913 478.136 304.674 478.499 304.742C478.862 304.81 479.101 305.159 479.033 305.522C478.568 308.002 478.251 309.933 477.58 314.239C476.906 318.557 476.588 320.497 476.12 322.996C476.052 323.358 475.702 323.597 475.34 323.529C474.977 323.461 474.738 323.112 474.806 322.749C475.271 320.269 475.587 318.338 476.259 314.033C476.932 309.714 477.251 307.774 477.719 305.276ZM434.14 205.309C434.131 205.298 434.121 205.287 434.112 205.276C432.428 203.216 430.862 200.701 429.606 197.829C429.458 197.491 429.612 197.097 429.95 196.949C430.288 196.801 430.683 196.955 430.831 197.293C432.037 200.05 433.538 202.462 435.147 204.43C435.257 204.564 435.305 204.727 435.297 204.887C435.408 205.006 435.476 205.166 435.476 205.342C435.476 205.485 435.491 205.63 435.522 205.804C435.535 205.88 435.552 205.962 435.574 206.063C435.586 206.12 435.632 206.323 435.633 206.331C436.055 207.933 437.282 209.21 438.851 209.732C439.202 209.849 439.391 210.227 439.275 210.577C439.158 210.928 438.78 211.117 438.429 211.001C436.436 210.338 434.877 208.714 434.334 206.644C434.336 206.653 434.282 206.415 434.268 206.347C434.242 206.23 434.222 206.133 434.206 206.037C434.162 205.791 434.14 205.57 434.14 205.342C434.14 205.331 434.14 205.32 434.14 205.309Z" fill="#482D1F"/>
</g>
</g>
<path d="M335.458 421.034H373.147C374.291 421.034 375.291 420.081 375.291 418.938V418.699C375.291 417.556 374.291 416.603 373.052 416.603H338.127C316.971 416.603 295.816 416.603 274.708 416.603H242.308C241.165 416.603 240.164 417.556 240.164 418.699V418.938C240.164 420.081 241.117 421.034 242.308 421.034H288.289L275.614 444.286C266.608 460.867 257.603 477.4 248.55 493.982L233.637 521.331C233.112 522.284 233.541 523.523 234.542 524.095L234.732 524.19C235.733 524.714 237.02 524.428 237.496 523.523L293.291 421.034H330.455L386.25 523.523C386.727 524.428 388.013 524.762 389.014 524.19L389.204 524.095C390.205 523.523 390.634 522.284 390.11 521.331L375.196 493.982C366.191 477.4 357.185 460.867 348.132 444.286L335.458 421.034ZM375.148 402.362V374.659C375.148 353.53 375.148 332.449 375.148 311.369V286.193C375.148 282.246 371.949 279.046 368.001 279.046H290.241C286.294 279.046 283.094 282.246 283.094 286.193V402.444C283.094 406.391 286.294 409.591 290.241 409.591C290.244 409.591 290.246 409.591 290.249 409.591L368.009 409.509C371.953 409.505 375.148 406.307 375.148 402.362Z" fill="#D8DEED"/>
<g clip-path="url(#clip5)">
<path d="M61.556 522.3C60.3172 522.3 59.3643 521.475 59.4119 520.485V519.826C59.4119 518.836 60.4125 518.011 61.556 518.011H110.394C111.585 518.011 112.538 518.836 112.538 519.826V520.485C112.538 521.475 111.538 522.3 110.394 522.3H61.556ZM125.213 518.011H200.971C202.155 518.011 203.115 518.971 203.115 520.155C203.115 521.34 202.155 522.3 200.971 522.3H125.213C124.028 522.3 123.068 521.34 123.068 520.155C123.068 518.971 124.028 518.011 125.213 518.011Z" fill="#D71149"/>
<path d="M122.441 405.823L118.37 407.982L118.311 409.858C118.196 414.676 118.013 418.91 117.764 422.643C117.583 425.579 115.094 458.857 114.194 471.068C114.006 473.837 112.042 476.248 109.259 477.097C105.063 478.413 102.372 479.175 91.3857 479.928C90.6729 479.995 89.9571 479.977 89.289 479.959C78.5928 479.488 73.2061 478.166 71.9978 477.705C70.4518 477.131 69.6319 476.866 68.7971 476.183C65.8538 473.856 65.9076 470.004 65.8094 468.584C65.2269 459.218 63.6255 433.443 62.6927 412.001C61.8376 411.696 61.0328 411.261 60.3383 410.639C57.4848 408.068 53.5284 405.101 51.3629 400.045C45.2351 385.741 44.5808 369.773 49.4 352.143C53.1729 343.985 55.7093 339.557 57.0092 338.858L156.803 345.675C157.722 345.655 158.643 345.635 159.566 345.615C171.621 345.398 181.388 354.806 181.102 366.295C181.102 366.382 181.102 366.425 181.102 366.512C180.34 402.15 171.43 452.92 170.811 470.088C170.763 470.739 170.572 472.169 169.572 473.687C166.475 478.326 159.232 477.285 142.318 477.676C127.928 478.022 122.115 479.063 119.161 475.248C117.541 473.167 117.589 470.782 117.637 469.698C118.795 448.31 120.473 426.723 122.441 405.823Z" fill="#00CC83"/>
<path opacity="0.176986" d="M122.612 405.806L118.546 407.962L119.634 373.615C119.615 371.732 119.449 360.353 109.716 353.446C102.625 348.457 94.2326 348.41 88.6539 348.392C85.4963 348.377 74.232 348.176 69.7855 353.446C62.1452 362.501 61.4744 379.481 61.6202 381.884C61.8863 386.688 62.1999 394.17 62.509 402.865C62.6126 405.777 62.736 408.85 62.874 412.016C62.0031 411.711 61.1832 411.271 60.4772 410.639C57.6237 408.068 53.6673 405.101 51.5018 400.045C45.3741 385.741 44.7198 369.773 49.5389 352.143C53.3118 343.985 55.8482 339.557 57.1481 338.858L156.041 345.613C153.291 345.673 150.549 345.733 147.784 345.793C137.063 346.053 128.153 353.814 127.01 363.959C125.456 377.391 123.965 391.437 122.612 405.806Z" fill="#444444"/>
<path d="M111.286 518.26C110.97 518.102 110.601 518.011 110.205 518.011H61.9518L73.1819 488.76L106.968 490.456C106.968 490.456 108.547 498.256 111.286 518.26ZM124.207 518.172L123.883 487.597L159.856 488.074L168.476 494.43C170.43 496.431 172.526 498.194 174.813 499.766C180.34 503.53 183.247 503.483 191.68 507.676C194.015 508.772 196.159 510.01 198.303 511.392C199.351 512.393 201.162 514.299 201.734 516.586C201.829 516.919 201.829 517.3 201.877 517.682C201.877 517.946 201.867 518.145 201.849 518.295C201.535 518.115 201.171 518.011 200.782 518.011H125.024C124.735 518.011 124.459 518.069 124.207 518.172Z" fill="#474961"/>
<path d="M125.154 292.922C124.356 309.149 122.556 331.466 120.926 335.799C118.455 342.365 71.0496 337.69 64.7374 336.254C60.7913 335.362 57.1114 324.725 56.4306 321.163C55.8529 318.296 52.6472 315.094 59.6394 289.612C56.5773 288.817 54.0683 288.148 52.7071 287.8C47.1912 286.391 49.6191 279.948 50.5968 275.52C53.3966 262.884 56.9076 258.258 58.1075 256.865C59.4852 255.273 60.8185 254.129 61.7073 253.432C67.707 248.756 74.0622 248.06 77.3065 248.01C77.3954 247.96 77.4843 247.96 77.5731 247.96L93.3501 247.761C93.2968 248.187 93.2401 248.642 93.1801 249.123C93.839 249.148 94.4867 249.178 95.1171 249.211C95.1387 248.73 95.1592 248.299 95.1782 247.875L110.937 250.895C110.937 250.895 120.266 253.244 125.397 258.696C126.157 259.508 127.279 260.818 128.371 262.559C129.321 264.081 132.009 269.055 132.665 281.46C132.892 285.806 134.226 292.309 128.56 292.681C127.767 292.733 126.594 292.818 125.154 292.922Z" fill="#D71149"/>
<path opacity="0.176986" d="M125.216 292.917C125.744 282.043 125.173 274.166 124.691 271.032C124.349 268.791 123.791 266.717 123.791 266.717C123.528 265.244 122.97 263.169 121.61 260.981C117.388 253.97 108.941 251.743 103.249 250.176C102.003 249.843 98.8649 249.501 95.113 249.302C95.1362 248.788 95.158 248.32 95.1782 247.869L110.927 250.89C110.927 250.89 120.266 253.244 125.397 258.696C126.157 259.508 127.279 260.818 128.371 262.559C129.321 264.081 132.009 269.055 132.665 281.46C132.892 285.806 134.226 292.309 128.56 292.681C127.779 292.732 126.629 292.815 125.216 292.917Z" fill="#444444"/>
<path d="M148.099 277.144C151.698 273.649 158.201 268.342 167.608 261.225C170.494 261.562 170.284 263.85 166.978 268.089L148.099 277.144ZM85.6062 295.165C85.4488 295.527 85.0278 295.693 84.6658 295.536C84.3038 295.378 84.1379 294.957 84.2953 294.595C85.2177 292.474 85.5886 291.288 86.3032 288.192C86.3919 287.807 86.7757 287.567 87.1603 287.656C87.5449 287.745 87.7847 288.129 87.696 288.513C86.9631 291.689 86.5667 292.956 85.6062 295.165Z" fill="#482D1F"/>
<path d="M106.968 490.456L73.1788 488.759L75.3645 478.539C78.1959 479.07 82.7391 479.672 89.2489 479.958C89.917 479.977 90.6328 479.994 91.3456 479.928C99.745 479.352 103.295 478.771 106.377 477.941L106.968 490.456ZM159.856 488.073L123.882 487.597C123.882 487.597 123.831 484.186 123.809 477.76C127.495 478.393 133.167 477.895 142.278 477.675C147.194 477.562 151.294 477.569 154.712 477.523L159.856 488.073ZM121.82 328.066L124.945 292.917C125.623 292.864 126.143 292.824 126.505 292.797C127.235 292.742 127.985 292.714 128.852 292.541C129.966 292.318 130.718 292.041 131.109 291.709L132.494 301.158L145.994 279.095C146.658 278.009 147.601 277.121 148.724 276.521L172.68 263.729C176.351 260.285 178.992 258.291 180.604 257.747C182.216 257.204 183.896 257.74 185.646 259.357L164.762 281.241C162.139 288.831 159.251 296.406 156.099 303.967C152.949 311.523 148.051 322.604 141.404 337.209C150.479 342.077 155.944 345.932 155.944 345.932C155.944 345.932 88.3884 344.787 61.5915 343.146C37.7511 341.686 49.2468 297.418 52.0737 287.667C52.2188 287.715 52.3702 287.759 52.5281 287.8C57.4631 289.061 77.4837 294.622 84.2552 295.002L77.7547 317.703C93.7248 318.551 109.042 322.968 121.82 328.066ZM103.394 249.123C104.577 249.45 106.005 249.742 107.281 250.195C106.22 252.788 104.745 254.307 102.855 254.753C100.019 255.421 93.234 255.421 88.7727 253.504C85.7985 252.226 83.5595 250.363 82.0557 247.915C83.7831 247.882 85.4056 247.855 86.9231 247.833V230.154C85.7241 228.748 84.6743 227.408 84.0568 226.164C83.0156 224.103 83.1614 218.902 83.6142 216.423C83.7643 215.406 91.0969 208.182 95.3419 215.268L94.9433 203.059C94.9243 202.296 95.4874 201.624 96.2985 201.601C97.9639 201.503 99.6211 201.311 101.392 200.773C101.581 200.757 101.767 200.692 101.957 200.676C103.558 200.392 112.587 199.172 117.828 205.505C118.305 206.037 118.739 206.621 119.138 207.351C120.003 209.045 120.502 210.915 120.525 212.826L120.6 221.333C120.58 222.196 120.512 223.063 120.393 223.886C119.54 229.987 117.737 235.071 115.633 238.364C114.08 240.844 112.298 242.339 110.641 242.532C110.17 242.621 107.603 242.798 104.534 242.157C104.334 242.109 104.387 242.151 103.135 241.732L103.394 249.123Z" fill="#DB9E75"/>
<path d="M78.4036 317.908C78.7965 317.871 79.1452 318.159 79.1822 318.552C79.2193 318.945 78.9308 319.294 78.5378 319.331C78.445 319.34 78.2633 319.36 78.0057 319.395C77.5721 319.453 77.0879 319.529 76.5661 319.627C75.0766 319.904 73.588 320.291 72.2052 320.804C71.3888 321.106 70.6339 321.444 69.9528 321.819C69.6069 322.009 69.1723 321.883 68.9821 321.537C68.7919 321.191 68.918 320.757 69.2639 320.566C70.0105 320.156 70.8292 319.789 71.7086 319.463C73.1755 318.92 74.7403 318.513 76.3042 318.221C76.851 318.12 77.3592 318.039 77.8161 317.978C77.977 317.957 78.1202 317.939 78.2443 317.925C78.3203 317.916 78.3739 317.911 78.4036 317.908ZM131.935 300.733C132.151 300.403 132.594 300.311 132.924 300.528C133.254 300.745 133.346 301.188 133.129 301.518C133.109 301.548 133.109 301.548 133.016 301.691C132.923 301.832 132.815 301.996 132.694 302.181C132.348 302.71 131.963 303.299 131.549 303.934C130.365 305.75 129.185 307.571 128.089 309.278C127.976 309.454 127.976 309.454 127.863 309.63C126.195 312.233 126.509 311.5 125.716 312.831C125.514 313.17 125.075 313.281 124.736 313.079C124.397 312.877 124.286 312.439 124.488 312.1C125.291 310.751 124.983 311.474 126.66 308.859C126.773 308.682 126.773 308.682 126.886 308.506C127.984 306.796 129.166 304.972 130.351 303.154C130.766 302.517 131.152 301.927 131.498 301.398C131.62 301.213 131.727 301.049 131.82 300.907C131.915 300.763 131.915 300.763 131.935 300.733Z" fill="#482D1F"/>
<path d="M103.336 241.742L96.2766 239.213L103.336 247.456L103.336 241.742Z" fill="#482D1F"/>
<path d="M96.0888 219.648L95.9706 218.769C95.9706 218.769 95.6312 217.077 94.2951 215.472C94.1918 215.385 93.2936 214.412 92.0138 213.997C89.7081 213.338 86.8525 214.592 85.4172 216.775C83.8912 219.013 84.1362 221.813 85.2249 223.87C86.3136 225.927 88.157 226.77 88.799 227.001L91.6419 227.633C89.5844 231.505 87.7605 234.967 87.3331 234.967C86.5494 234.967 83.487 231.34 81.4774 228.598C80.4984 227.249 77.1575 224.05 76.1578 218.637C75.9462 217.375 75.3348 213.985 76.2831 210.39C70.2401 206.645 65.9765 200.197 65.3092 192.57C64.1854 179.724 73.6874 168.4 86.5326 167.277C99.3778 166.153 110.702 175.655 111.826 188.5C112.196 192.734 111.412 196.803 109.734 200.396C113.074 201.162 116.631 202.869 118.595 206.17C117.646 206.847 116.5 207.407 115.191 207.761C111.634 208.646 108.486 208.204 106.577 207.701C103.269 211.434 99.9085 215.124 96.6001 218.857C96.4366 219.101 96.2658 219.365 96.0888 219.648Z" fill="#482D1F"/>
<path fill-rule="evenodd" clip-rule="evenodd" d="M109.23 221.627C108.653 221.582 108.12 222.059 108.028 222.641C107.913 223.512 107.748 224.913 108.182 225.497C108.791 226.448 110.412 224.202 110.125 222.553C109.924 221.901 109.614 221.641 109.23 221.627ZM119.697 222.02C119.119 221.975 118.587 222.452 118.494 223.034C118.379 223.905 118.215 225.306 118.649 225.89C119.258 226.841 120.879 224.595 120.591 222.946C120.391 222.294 120.081 222.034 119.697 222.02Z" fill="#482D1F"/>
<path d="M114.961 223.713L115.424 228.455C115.425 228.473 115.359 228.552 115.337 228.554C115.077 228.576 114.81 228.582 114.392 228.579C114.311 228.578 114.226 228.577 114.104 228.575C113.95 228.573 113.866 228.572 113.785 228.571C113.509 228.567 113.28 228.565 113.035 228.565L113.034 228.565C112.772 228.566 112.559 228.779 112.559 229.042C112.559 229.305 112.773 229.518 113.036 229.518L113.038 229.518C113.275 229.518 113.5 229.52 113.773 229.523C113.853 229.525 113.936 229.526 114.091 229.528C114.214 229.53 114.301 229.531 114.384 229.532C114.829 229.536 115.123 229.529 115.42 229.503C115.967 229.455 116.42 228.914 116.372 228.367L115.909 223.62C115.884 223.358 115.651 223.167 115.389 223.192C115.127 223.218 114.935 223.451 114.961 223.713Z" fill="#482D1F"/>
<path d="M112.36 232.258C112.016 232.144 111.176 231.835 111.087 231.365C111.078 231.27 111.018 231.131 111.109 231.076C111.326 230.818 111.916 231.005 112.791 231.168C114.343 231.415 115.586 231.402 115.586 231.402C115.586 231.402 115.177 232.202 114.909 232.417C114.39 233.037 112.856 232.453 112.36 232.258Z" fill="#482D1F"/>
<path d="M100.618 221.486L97.7622 220.876C97.3762 220.794 97.13 220.414 97.2124 220.028C97.2948 219.642 97.6745 219.396 98.0606 219.478L101.132 220.134C102.155 218.121 104.162 216.665 106.577 216.454C110.3 216.128 113.582 218.882 113.907 222.604C113.915 222.693 113.921 222.782 113.925 222.87L115.375 222.921C115.757 219.818 118.262 217.297 121.501 217.014C125.224 216.688 128.505 219.442 128.831 223.164C129.157 226.886 126.403 230.168 122.681 230.494C118.961 230.819 115.681 228.069 115.351 224.35L113.844 224.298C113.354 227.275 110.901 229.659 107.757 229.934C104.034 230.26 100.753 227.506 100.427 223.784C100.358 222.99 100.428 222.216 100.618 221.486ZM102.151 221.37C101.892 222.08 101.781 222.857 101.851 223.659C102.108 226.595 104.696 228.767 107.632 228.51C110.568 228.253 112.74 225.665 112.483 222.729C112.226 219.793 109.638 217.621 106.702 217.878C104.686 218.054 103.03 219.33 102.274 221.062C102.272 221.077 102.269 221.092 102.266 221.107C102.245 221.205 102.205 221.294 102.151 221.37ZM116.755 223.813C116.756 223.947 116.763 224.083 116.775 224.219C117.032 227.155 119.62 229.327 122.556 229.07C125.492 228.813 127.664 226.225 127.407 223.289C127.15 220.353 124.562 218.181 121.626 218.438C118.923 218.674 116.868 220.886 116.759 223.527C116.768 223.578 116.772 223.631 116.771 223.685C116.769 223.729 116.764 223.771 116.755 223.813Z" fill="#482D1F"/>
<path opacity="0.2" d="M125.124 292.917L121.997 328.092C126.43 329.912 129.745 331.339 131.941 332.373C134.138 333.408 137.349 335.028 141.572 337.235C148.224 322.617 153.126 311.528 156.278 303.967C159.43 296.406 162.318 288.831 164.941 281.241L185.825 259.357C184.075 257.74 182.395 257.203 180.783 257.747C179.171 258.29 176.53 260.284 172.859 263.729L148.903 276.521C147.78 277.121 146.837 278.01 146.173 279.096L132.673 301.158L131.288 291.71C130.976 292.041 130.264 292.319 129.15 292.541C128.283 292.714 127.532 292.743 126.803 292.797C126.441 292.824 125.881 292.864 125.124 292.917Z" fill="#8C2A00"/>
</g>
<g clip-path="url(#clip6)">
<path d="M271.374 517.809L318.7 482.55C319.653 481.835 321.035 482.026 321.749 482.979C322.464 483.932 322.274 485.314 321.321 486.028L273.483 521.668C272.53 522.383 271.148 522.192 270.434 521.239C269.719 520.287 269.909 518.905 270.862 518.19L271.374 517.809H272.054C273.245 517.809 274.245 518.788 274.245 519.953C274.198 521.165 273.245 522.097 272.054 522.097H245.609C244.418 522.097 243.418 521.118 243.418 519.953C243.418 518.788 244.418 517.809 245.609 517.809H271.374ZM355.341 522.195H306.455C305.311 522.195 304.311 521.37 304.311 520.381V519.721C304.311 518.731 305.264 517.907 306.455 517.907H355.293C356.436 517.907 357.437 518.731 357.437 519.721V520.381C357.532 521.37 356.532 522.195 355.341 522.195Z" fill="#FF5645"/>
<path d="M310.731 493.918C311.441 494.212 323.111 493.773 345.74 492.6L353.879 517.907H306.455C306.441 517.907 306.427 517.907 306.413 517.907C309.506 502.505 310.957 494.5 310.767 493.891L310.731 493.918ZM318.52 482.684L271.374 517.809H245.609C245.319 517.809 245.04 517.867 244.784 517.972C244.742 517.768 244.713 517.565 244.704 517.376C244.752 517.043 244.752 516.662 244.847 516.281C245.085 515.423 245.466 514.613 245.895 513.898C247.277 511.706 249.755 510.182 249.755 510.182C252.614 508.324 255.234 507.085 258.331 505.751C259.951 505.036 262.238 504.083 264.906 503.035C265.764 500.271 266.622 497.508 267.479 494.696C269.099 489.312 270.719 483.976 272.292 478.639L300.975 457.818L318.52 482.684Z" fill="#474961"/>
<path d="M310.204 470.984C307.019 472.93 301.487 474.378 292.804 477.31C276.853 482.71 270.476 486.251 265.779 482.635C264.207 481.478 263.465 480.105 263.174 479.45C255.845 462.407 227.578 414.372 212.83 378.781C212.81 378.69 212.754 378.654 212.733 378.562C208.002 367.09 213.395 354.266 224.76 350.374C228.517 349.083 232.284 347.837 236.042 346.546C239.446 345.402 242.989 345.181 246.385 345.766L246.198 345.453L359.686 342.213C361.64 343.177 362.905 347.113 365.131 353.294C367.357 359.475 368.062 370.245 367.872 371.472C367.872 381.071 366.156 389.88 363.298 396.674C361.296 401.363 358.819 405.089 355.96 407.456C355.469 407.869 354.968 408.24 354.459 408.568C354.459 409.228 354.459 409.895 354.459 410.569C354.459 435.492 353.601 471.102 353.315 482.941C353.268 484.507 353.458 488.746 350.599 491.417C349.789 492.201 348.979 492.523 347.455 493.214C346.263 493.767 340.927 495.425 330.254 496.347C329.587 496.393 328.872 496.439 328.158 496.393C317.456 495.99 314.592 495.282 310.544 494.057L321.321 486.028C322.274 485.314 322.464 483.932 321.749 482.979C321.035 482.026 319.653 481.835 318.7 482.55L318.48 482.714L310.204 470.984ZM299.582 432.347C299.274 428.747 299 424.747 298.759 420.289L297.93 406.721L284.909 401.918C289.83 411.917 294.743 422.091 299.582 432.347Z" fill="#D71149"/>
<path opacity="0.176986" d="M354.46 408.39C354.466 399.705 354.513 392.268 354.602 387.361C354.697 383.169 355.412 360.136 346.168 355.345C345.358 354.93 344.548 354.607 342.928 354.009C341.642 353.548 334.971 351.152 326.395 351.521C320.82 351.751 312.434 352.12 305.525 357.878C295.996 365.848 296.234 378.424 296.329 380.451L297.923 406.529L284.833 401.681C277.352 386.484 269.855 371.692 262.578 357.633C258.981 350.7 252.282 346.299 245.098 345.501L359.686 342.035C361.64 343 362.905 346.935 365.131 353.116C367.357 359.297 368.062 370.067 367.872 371.294C367.872 380.893 366.156 389.703 363.298 396.496C361.296 401.186 358.819 404.911 355.96 407.278C355.469 407.691 354.968 408.063 354.46 408.39Z" fill="#444444"/>
<path d="M311.078 471.357C313.203 469.902 314.79 468.235 315.212 466.581C315.83 464.278 315.408 462.114 314.454 459.981C309.234 448.317 305.619 440.58 303.601 436.759C303.417 436.41 302.984 436.276 302.635 436.461C302.286 436.645 302.153 437.078 302.337 437.427C304.336 441.211 307.942 448.929 313.149 460.565C313.981 462.426 314.346 464.294 313.83 466.219C313.516 467.449 312.13 468.904 310.27 470.178C309.944 470.401 309.861 470.846 310.084 471.171C310.307 471.497 310.752 471.58 311.078 471.357Z" fill="#482D1F"/>
<mask id="mask3" mask-type="alpha" maskUnits="userSpaceOnUse" x="259" y="244" width="126" height="100">
<path d="M361.036 311.712C362.148 321.763 362.176 330.146 361.34 335.676C361.34 335.82 361.296 336.012 361.252 336.156C361.03 337.645 360.72 338.894 360.321 339.903C360.276 339.999 360.232 340.095 360.188 340.191C357.927 343.842 340.065 342.545 335.854 342.689C328.94 342.929 285.613 344.151 284.594 343.478C284.106 343.142 283.53 339.423 283.043 338.894C281.385 337.187 282.093 326.741 283.664 314.223L259.698 312.19C261.371 299.556 262.494 292.413 263.066 290.762C264.733 286.045 269.528 277.107 270.624 272.914C273.674 261.05 277.438 256.619 278.724 255.332C280.201 253.808 281.631 252.759 282.584 252.092C289.016 247.661 295.829 246.994 299.308 246.899C299.356 246.875 302.919 246.629 306.426 246.394C309.244 245.505 312.869 245.231 318.346 245.231C322.355 245.231 325.778 245.473 328.601 245.808C327.803 244.833 327.644 244.58 329.516 244.659L346.431 245.374C346.526 245.374 346.621 245.374 346.716 245.422C350.195 245.517 357.008 246.184 363.441 250.615C364.394 251.282 365.823 252.331 367.3 253.855C368.586 255.142 372.351 259.573 375.4 271.437C376.496 275.63 381.235 283.343 382.903 288.06C384.014 291.205 384.642 297.957 384.786 308.316C377.722 309.742 369.805 310.874 361.036 311.712V311.712Z" fill="white"/>
</mask>
<g mask="url(#mask3)">
<path d="M361.036 311.712C362.148 321.763 362.176 330.146 361.34 335.676C361.34 335.82 361.296 336.012 361.252 336.156C361.03 337.645 360.72 338.894 360.321 339.903C360.276 339.999 360.232 340.095 360.188 340.191C357.927 343.842 340.065 342.545 335.854 342.689C328.94 342.929 285.613 344.151 284.594 343.478C284.106 343.142 283.53 339.423 283.043 338.894C281.385 337.187 282.093 326.741 283.664 314.223L259.698 312.19C261.371 299.556 262.494 292.413 263.066 290.762C264.733 286.045 269.528 277.107 270.624 272.914C273.674 261.05 277.438 256.619 278.724 255.332C280.201 253.808 281.631 252.759 282.584 252.092C289.016 247.661 295.829 246.994 299.308 246.899C299.356 246.875 302.919 246.629 306.426 246.394C309.244 245.505 312.869 245.231 318.346 245.231C322.355 245.231 325.778 245.473 328.601 245.808C327.803 244.833 327.644 244.58 329.516 244.659L346.431 245.374C346.526 245.374 346.621 245.374 346.716 245.422C350.195 245.517 357.008 246.184 363.441 250.615C364.394 251.282 365.823 252.331 367.3 253.855C368.586 255.142 372.351 259.573 375.4 271.437C376.496 275.63 381.235 283.343 382.903 288.06C384.014 291.205 384.642 297.957 384.786 308.316C377.722 309.742 369.805 310.874 361.036 311.712V311.712Z" fill="#FF5645"/>
<path d="M309.065 245.867C305.192 246.98 302.764 250.86 301.781 257.506C300.797 264.153 299.607 283.689 298.212 316.114L320.032 322.875L342.845 316.782C341.435 282.175 340.266 262.277 339.34 257.09C337.95 249.308 336.631 247.769 332.085 245.867C327.539 243.965 323.219 244.232 318.174 244.691C314.811 244.997 311.774 245.389 309.065 245.867Z" fill="#DC7418"/>
</g>
<path d="M329.182 231.517L329.706 246.899C329.706 247.232 329.564 247.566 329.278 247.709C328.039 248.471 326.276 249.329 324.084 249.805C320.129 250.711 316.746 250.044 314.841 249.472C314.459 249.377 314.174 248.995 314.174 248.614L313.991 240.32C311.516 241.24 311.654 241.148 311.41 241.229C308.408 241.991 305.835 241.896 305.359 241.801C303.644 241.658 301.833 240.228 300.213 237.798C298.021 234.558 296.068 229.508 295.019 223.457C294.829 222.599 294.781 221.741 294.734 220.884L294.543 212.355C294.495 210.449 294.972 208.591 295.877 206.828C296.258 206.065 296.639 205.446 297.116 204.922C297.131 204.902 297.147 204.882 297.162 204.862C297.179 204.835 297.195 204.807 297.211 204.779C300.88 199.681 308.551 199.014 312.077 199.395C312.506 199.442 314.031 199.633 316.222 199.776C317.414 199.871 318.366 199.871 318.938 199.919C326.038 200.205 328.849 199.347 332.422 201.253C333.089 201.587 334.614 202.444 335.948 204.112C339.712 208.829 338.615 214.928 338.377 216.738C337.519 222.17 334.566 225.505 333.614 226.887C332.614 228.361 330.74 230.149 329.182 231.517ZM263.819 335.608C260.146 330.516 260.074 321.571 261.042 312.237C262.102 312.237 269.634 312.777 283.638 313.857C286.511 314.095 291.376 314.674 298.233 315.595L323.458 321.378L353.101 314.129L352.958 312.78C357.06 312.252 360.048 311.854 361.924 311.586C366.964 310.866 374.35 309.784 384.08 308.338C385.318 322.986 383.195 339.224 369.158 343.861H309.865L258.627 345.37C257.838 345.393 257.179 344.772 257.156 343.983C257.147 343.67 257.241 343.362 257.423 343.108C259.572 340.112 261.704 337.612 263.819 335.608Z" fill="#DB9E75"/>
<path opacity="0.2" d="M263.856 335.658C260.146 330.575 260.07 321.602 261.042 312.237C262.102 312.237 267.534 312.607 277.34 313.349C280.742 313.481 287.706 314.23 298.233 315.595C308.226 317.886 316.705 319.83 323.669 321.427L296.646 328.035C295.925 327.789 295.183 327.565 294.421 327.367C281.842 324.108 271.836 329.998 268.311 332.192C266.68 333.205 265.198 334.396 263.856 335.658Z" fill="#8C2A00"/>
<path d="M337.845 219.022C335.737 218.492 333.416 217.856 331.018 217.162C330.849 216.505 330.563 215.867 330.137 215.273C328.612 213.129 325.561 211.926 323.274 212.688C322.166 213.058 321.376 213.851 321.118 214.125C315.324 212.257 310.203 210.452 307.807 209.456C305.012 208.294 303.153 207.186 302.23 206.131C298.901 208.094 296.345 209.403 294.559 210.058C294.765 208.881 295.166 207.73 295.737 206.616C296.119 205.854 296.5 205.235 296.976 204.711C296.992 204.691 297.007 204.671 297.023 204.651C297.039 204.623 297.056 204.595 297.071 204.568C300.74 199.469 308.411 198.802 311.937 199.184C312.366 199.231 313.891 199.422 316.083 199.565C317.274 199.66 318.227 199.66 318.799 199.708C325.898 199.994 328.709 199.136 332.283 201.042C332.95 201.375 334.474 202.233 335.809 203.901C339.573 208.618 338.667 214.716 338.429 216.527C338.289 217.414 338.088 218.246 337.845 219.022ZM296.211 218.215C295.734 218.12 295.591 217.501 295.925 217.167C296.354 216.786 297.116 216.405 298.069 216.405C300.022 216.405 302.119 217.691 299.927 218.263C298.641 218.644 297.116 218.406 296.211 218.215ZM306.026 218.549C305.549 218.454 305.406 217.834 305.788 217.501C306.216 217.119 306.979 216.738 307.979 216.738C309.933 216.738 312.029 218.072 309.838 218.597C308.456 218.978 306.979 218.739 306.026 218.549Z" fill="#482D1F"/>
<path d="M313.888 240.211L319.298 237.4L314.221 245.231L313.888 240.211Z" fill="#482D1F"/>
<path d="M299.927 221.551C299.879 222.361 299.736 223.695 299.26 224.171C298.45 224.886 297.402 222.504 298.021 221.027C298.259 220.407 298.593 220.312 298.974 220.359C299.546 220.455 299.927 220.979 299.927 221.551ZM308.456 221.455C308.504 222.265 308.504 223.599 308.027 224.171C307.312 224.981 305.978 222.694 306.455 221.169C306.645 220.55 306.979 220.407 307.36 220.407C307.932 220.407 308.408 220.884 308.456 221.455Z" fill="#482D1F"/>
<path d="M304.549 231.271C304.882 231.175 305.692 230.937 305.835 230.413C305.835 230.318 305.883 230.175 305.835 230.079C305.645 229.746 305.073 229.937 304.215 229.984C302.691 230.079 301.452 229.937 301.452 229.937C301.452 229.937 301.785 230.889 302.024 231.175C302.548 231.89 304.072 231.414 304.549 231.271Z" fill="#482D1F"/>
<path d="M300.599 226.678C300.509 227.215 300.926 227.743 301.469 227.834C301.588 227.845 301.588 227.845 301.665 227.851C302.469 227.912 302.971 227.935 303.834 227.935C304.097 227.935 304.311 227.722 304.311 227.459C304.311 227.196 304.097 226.982 303.834 226.982C302.998 226.982 302.519 226.96 301.738 226.9L301.584 226.889C301.582 226.886 301.539 226.832 301.541 226.823L302.257 221.712L302.262 221.646V218.835C302.262 218.572 302.048 218.358 301.785 218.358C301.522 218.358 301.309 218.572 301.309 218.835V221.613L300.599 226.678Z" fill="#482D1F"/>
<path d="M330.999 217.274C331.217 218.67 330.965 220.19 330.332 221.412C329.561 222.952 328.477 223.792 327.077 224.439C326.838 224.549 326.734 224.832 326.844 225.071C326.954 225.31 327.237 225.414 327.476 225.304C328.092 225.02 328.581 224.745 329.147 224.307C329.98 223.661 330.678 222.851 331.181 221.844C331.904 220.449 332.19 218.724 331.94 217.126C331.9 216.866 331.656 216.689 331.396 216.729C331.136 216.77 330.958 217.014 330.999 217.274Z" fill="#482D1F"/>
<path d="M287.478 313.819C288.405 296.342 288.817 288.568 289.329 278.822C289.379 277.871 290.807 277.946 290.757 278.898L288.905 313.894C288.855 314.846 287.427 314.77 287.478 313.819ZM353.886 312.336C354.164 313.239 352.816 313.666 352.523 312.768L345.9 292.47C345.61 291.582 346.925 291.124 347.25 292C348.179 294.504 352.52 307.897 353.886 312.336Z" fill="#482D1F"/>
</g>
<g clip-path="url(#clip7)">
<path d="M231.219 334.413L235.801 315.925H201.405C197.831 315.925 194.876 313.209 194.876 309.921V257.557C194.829 254.222 197.736 251.506 201.357 251.506H306.038C309.611 251.506 312.565 254.222 312.565 257.509V309.921C312.565 313.209 309.611 315.925 306.038 315.925H264.12L262.228 334.413H274.639C276.545 334.413 278.022 335.937 278.022 337.796C278.022 339.702 276.497 341.179 274.639 341.179H221.512C219.606 341.179 218.129 339.654 218.129 337.796C218.034 335.937 219.606 334.413 221.512 334.413H231.219Z" fill="#CFCFCF"/>
<path fill-rule="evenodd" clip-rule="evenodd" d="M265.54 302.449L265.681 334.46H262.265L265.54 302.449Z" fill="white"/>
</g>
<path d="M425.488 341.082H43.8353C41.9933 341.082 40.5 342.576 40.5 344.418C40.5 346.26 41.9933 347.753 43.8353 347.753H425.488C427.33 347.753 428.824 346.26 428.824 344.418C428.824 342.576 427.33 341.082 425.488 341.082Z" fill="#D8DEED"/>
<defs>
<clipPath id="clip0">
<rect x="27" y="88.6823" width="179.629" height="137.7" rx="10" fill="white"/>
</clipPath>
<clipPath id="clip1">
<rect width="157.235" height="247.765" fill="white" transform="translate(15.2471 274.376)"/>
</clipPath>
<clipPath id="clip2">
<rect x="224.847" y="16" width="192.971" height="148.182" rx="10" fill="white"/>
</clipPath>
<clipPath id="clip3">
<rect width="223" height="398" fill="white" transform="translate(302 124)"/>
</clipPath>
<clipPath id="clip4">
<rect width="221.918" height="397.045" fill="white" transform="translate(302.415 124.955)"/>
</clipPath>
<clipPath id="clip5">
<rect width="248.718" height="360.212" fill="white" transform="translate(0 161.929)"/>
</clipPath>
<clipPath id="clip6">
<rect width="248.718" height="360.212" fill="white" transform="translate(171.471 161.929)"/>
</clipPath>
<clipPath id="clip7">
<rect width="168.671" height="126.741" fill="white" transform="translate(169.624 214.818)"/>
</clipPath>
</defs>
</svg>